<svg width="200" height="48" viewBox="0 0 200 48" fill="none" xmlns="http://www.w3.org/2000/svg">
<g filter="url(#filter0_d_158_730)">
<rect width="195.803" height="43.4241" fill="#243C55"/>
</g>
<path d="M75.2362 27.2178C74.4575 27.2178 73.7535 27.0844 73.1242 26.8178C72.5055 26.5511 72.0148 26.1671 71.6522 25.6658C71.2895 25.1644 71.1028 24.5724 71.0922 23.8898H73.4922C73.5242 24.3484 73.6842 24.7111 73.9722 24.9778C74.2708 25.2444 74.6762 25.3778 75.1882 25.3778C75.7108 25.3778 76.1215 25.2551 76.4202 25.0098C76.7188 24.7538 76.8682 24.4231 76.8682 24.0178C76.8682 23.6871 76.7668 23.4151 76.5642 23.2018C76.3615 22.9884 76.1055 22.8231 75.7962 22.7058C75.4975 22.5778 75.0815 22.4391 74.5482 22.2898C73.8228 22.0764 73.2308 21.8684 72.7722 21.6658C72.3242 21.4524 71.9348 21.1378 71.6042 20.7218C71.2842 20.2951 71.1242 19.7298 71.1242 19.0258C71.1242 18.3644 71.2895 17.7884 71.6202 17.2978C71.9508 16.8071 72.4148 16.4338 73.0122 16.1778C73.6095 15.9111 74.2922 15.7778 75.0602 15.7778C76.2122 15.7778 77.1455 16.0604 77.8602 16.6258C78.5855 17.1804 78.9855 17.9591 79.0602 18.9618H76.5962C76.5748 18.5778 76.4095 18.2631 76.1002 18.0178C75.8015 17.7618 75.4015 17.6338 74.9002 17.6338C74.4628 17.6338 74.1108 17.7458 73.8442 17.9698C73.5882 18.1938 73.4602 18.5191 73.4602 18.9458C73.4602 19.2444 73.5562 19.4951 73.7482 19.6978C73.9508 19.8898 74.1962 20.0498 74.4842 20.1778C74.7828 20.2951 75.1988 20.4338 75.7322 20.5938C76.4575 20.8071 77.0495 21.0204 77.5082 21.2338C77.9668 21.4471 78.3615 21.7671 78.6922 22.1938C79.0228 22.6204 79.1882 23.1804 79.1882 23.8738C79.1882 24.4711 79.0335 25.0258 78.7242 25.5378C78.4148 26.0498 77.9615 26.4604 77.3642 26.7698C76.7668 27.0684 76.0575 27.2178 75.2362 27.2178ZM89.3702 22.4818C89.3702 22.8018 89.3488 23.0898 89.3062 23.3458H82.8262C82.8795 23.9858 83.1035 24.4871 83.4982 24.8498C83.8928 25.2124 84.3782 25.3938 84.9542 25.3938C85.7862 25.3938 86.3782 25.0364 86.7302 24.3218H89.1462C88.8902 25.1751 88.3995 25.8791 87.6742 26.4338C86.9488 26.9778 86.0582 27.2498 85.0022 27.2498C84.1488 27.2498 83.3808 27.0631 82.6982 26.6898C82.0262 26.3058 81.4982 25.7671 81.1142 25.0738C80.7408 24.3804 80.5542 23.5804 80.5542 22.6738C80.5542 21.7564 80.7408 20.9511 81.1142 20.2578C81.4875 19.5644 82.0102 19.0311 82.6822 18.6578C83.3542 18.2844 84.1275 18.0978 85.0022 18.0978C85.8448 18.0978 86.5968 18.2791 87.2582 18.6418C87.9302 19.0044 88.4475 19.5218 88.8102 20.1938C89.1835 20.8551 89.3702 21.6178 89.3702 22.4818ZM87.0502 21.8418C87.0395 21.2658 86.8315 20.8071 86.4262 20.4658C86.0208 20.1138 85.5248 19.9378 84.9382 19.9378C84.3835 19.9378 83.9142 20.1084 83.5302 20.4498C83.1568 20.7804 82.9275 21.2444 82.8422 21.8418H87.0502ZM99.2452 22.4818C99.2452 22.8018 99.2238 23.0898 99.1812 23.3458H92.7012C92.7545 23.9858 92.9785 24.4871 93.3732 24.8498C93.7678 25.2124 94.2532 25.3938 94.8292 25.3938C95.6612 25.3938 96.2532 25.0364 96.6052 24.3218H99.0212C98.7652 25.1751 98.2745 25.8791 97.5492 26.4338C96.8238 26.9778 95.9332 27.2498 94.8772 27.2498C94.0238 27.2498 93.2558 27.0631 92.5732 26.6898C91.9012 26.3058 91.3732 25.7671 90.9892 25.0738C90.6158 24.3804 90.4292 23.5804 90.4292 22.6738C90.4292 21.7564 90.6158 20.9511 90.9892 20.2578C91.3625 19.5644 91.8852 19.0311 92.5572 18.6578C93.2292 18.2844 94.0025 18.0978 94.8772 18.0978C95.7198 18.0978 96.4718 18.2791 97.1332 18.6418C97.8052 19.0044 98.3225 19.5218 98.6852 20.1938C99.0585 20.8551 99.2452 21.6178 99.2452 22.4818ZM96.9252 21.8418C96.9145 21.2658 96.7065 20.8071 96.3012 20.4658C95.8958 20.1138 95.3998 19.9378 94.8132 19.9378C94.2585 19.9378 93.7892 20.1084 93.4052 20.4498C93.0318 20.7804 92.8025 21.2444 92.7172 21.8418H96.9252ZM111.541 24.9778H107.093L106.357 27.1058H104.005L108.021 15.9218H110.629L114.645 27.1058H112.277L111.541 24.9778ZM110.933 23.1858L109.317 18.5138L107.701 23.1858H110.933ZM118.386 15.2658V27.1058H116.146V15.2658H118.386ZM122.839 15.2658V27.1058H120.599V15.2658H122.839Z" fill="white"/>
<defs>
<filter id="filter0_d_158_730" x="0" y="0" width="199.803" height="47.4241" filterUnits="userSpaceOnUse" color-interpolation-filters="sRGB">
<feFlood flood-opacity="0" result="BackgroundImageFix"/>
<feColorMatrix in="SourceAlpha" type="matrix" values="0 0 0 0 0 0 0 0 0 0 0 0 0 0 0 0 0 0 127 0" result="hardAlpha"/>
<feOffset dx="4" dy="4"/>
<feComposite in2="hardAlpha" operator="out"/>
<feColorMatrix type="matrix" values="0 0 0 0 1 0 0 0 0 1 0 0 0 0 1 0 0 0 1 0"/>
<feBlend mode="normal" in2="BackgroundImageFix" result="effect1_dropShadow_158_730"/>
<feBlend mode="normal" in="SourceGraphic" in2="effect1_dropShadow_158_730" result="shape"/>
</filter>
</defs>
</svg>
