<svg width="200" height="48" viewBox="0 0 200 48" fill="none" xmlns="http://www.w3.org/2000/svg">
<g filter="url(#filter0_d_10_113)">
<rect width="195.803" height="43.4241" fill="#243C55"/>
</g>
<path d="M52.9019 28.2457C51.9286 28.2457 51.0486 28.079 50.2619 27.7457C49.4886 27.4124 48.8753 26.9324 48.4219 26.3057C47.9686 25.679 47.7353 24.939 47.7219 24.0857H50.7219C50.7619 24.659 50.9619 25.1124 51.3219 25.4457C51.6953 25.779 52.2019 25.9457 52.8419 25.9457C53.4953 25.9457 54.0086 25.7924 54.3819 25.4857C54.7553 25.1657 54.9419 24.7524 54.9419 24.2457C54.9419 23.8324 54.8153 23.4924 54.5619 23.2257C54.3086 22.959 53.9886 22.7524 53.6019 22.6057C53.2286 22.4457 52.7086 22.2724 52.0419 22.0857C51.1353 21.819 50.3953 21.559 49.8219 21.3057C49.2619 21.039 48.7753 20.6457 48.3619 20.1257C47.9619 19.5924 47.7619 18.8857 47.7619 18.0057C47.7619 17.179 47.9686 16.459 48.3819 15.8457C48.7953 15.2324 49.3753 14.7657 50.1219 14.4457C50.8686 14.1124 51.7219 13.9457 52.6819 13.9457C54.1219 13.9457 55.2886 14.299 56.1819 15.0057C57.0886 15.699 57.5886 16.6724 57.6819 17.9257H54.6019C54.5753 17.4457 54.3686 17.0524 53.9819 16.7457C53.6086 16.4257 53.1086 16.2657 52.4819 16.2657C51.9353 16.2657 51.4953 16.4057 51.1619 16.6857C50.8419 16.9657 50.6819 17.3724 50.6819 17.9057C50.6819 18.279 50.8019 18.5924 51.0419 18.8457C51.2953 19.0857 51.6019 19.2857 51.9619 19.4457C52.3353 19.5924 52.8553 19.7657 53.5219 19.9657C54.4286 20.2324 55.1686 20.499 55.7419 20.7657C56.3153 21.0324 56.8086 21.4324 57.2219 21.9657C57.6353 22.499 57.8419 23.199 57.8419 24.0657C57.8419 24.8124 57.6486 25.5057 57.2619 26.1457C56.8753 26.7857 56.3086 27.299 55.5619 27.6857C54.8153 28.059 53.9286 28.2457 52.9019 28.2457ZM66.5094 16.8657C67.3494 16.8657 68.0961 17.0524 68.7494 17.4257C69.4028 17.7857 69.9094 18.3257 70.2694 19.0457C70.6428 19.7524 70.8294 20.6057 70.8294 21.6057V28.1057H68.0294V21.9857C68.0294 21.1057 67.8094 20.4324 67.3694 19.9657C66.9294 19.4857 66.3294 19.2457 65.5694 19.2457C64.7961 19.2457 64.1828 19.4857 63.7294 19.9657C63.2894 20.4324 63.0694 21.1057 63.0694 21.9857V28.1057H60.2694V13.3057H63.0694V18.4057C63.4294 17.9257 63.9094 17.5524 64.5094 17.2857C65.1094 17.0057 65.7761 16.8657 66.5094 16.8657ZM78.4121 28.2857C77.3454 28.2857 76.3854 28.0524 75.5321 27.5857C74.6788 27.1057 74.0054 26.4324 73.5121 25.5657C73.0321 24.699 72.7921 23.699 72.7921 22.5657C72.7921 21.4324 73.0388 20.4324 73.5321 19.5657C74.0388 18.699 74.7254 18.0324 75.5921 17.5657C76.4588 17.0857 77.4254 16.8457 78.4921 16.8457C79.5588 16.8457 80.5254 17.0857 81.3921 17.5657C82.2588 18.0324 82.9388 18.699 83.4321 19.5657C83.9388 20.4324 84.1921 21.4324 84.1921 22.5657C84.1921 23.699 83.9321 24.699 83.4121 25.5657C82.9054 26.4324 82.2121 27.1057 81.3321 27.5857C80.4654 28.0524 79.4921 28.2857 78.4121 28.2857ZM78.4121 25.8457C78.9188 25.8457 79.3921 25.7257 79.8321 25.4857C80.2854 25.2324 80.6454 24.859 80.9121 24.3657C81.1788 23.8724 81.3121 23.2724 81.3121 22.5657C81.3121 21.5124 81.0321 20.7057 80.4721 20.1457C79.9254 19.5724 79.2521 19.2857 78.4521 19.2857C77.6521 19.2857 76.9788 19.5724 76.4321 20.1457C75.8988 20.7057 75.6321 21.5124 75.6321 22.5657C75.6321 23.619 75.8921 24.4324 76.4121 25.0057C76.9454 25.5657 77.6121 25.8457 78.4121 25.8457ZM89.046 18.6257C89.406 18.119 89.8993 17.699 90.526 17.3657C91.166 17.019 91.8927 16.8457 92.706 16.8457C93.6527 16.8457 94.506 17.079 95.266 17.5457C96.0393 18.0124 96.646 18.679 97.086 19.5457C97.5393 20.399 97.766 21.3924 97.766 22.5257C97.766 23.659 97.5393 24.6657 97.086 25.5457C96.646 26.4124 96.0393 27.0857 95.266 27.5657C94.506 28.0457 93.6527 28.2857 92.706 28.2857C91.8927 28.2857 91.1727 28.119 90.546 27.7857C89.9327 27.4524 89.4327 27.0324 89.046 26.5257V33.3857H86.246V17.0257H89.046V18.6257ZM94.906 22.5257C94.906 21.859 94.766 21.2857 94.486 20.8057C94.2193 20.3124 93.8593 19.939 93.406 19.6857C92.966 19.4324 92.486 19.3057 91.966 19.3057C91.4593 19.3057 90.9793 19.439 90.526 19.7057C90.086 19.959 89.726 20.3324 89.446 20.8257C89.1793 21.319 89.046 21.899 89.046 22.5657C89.046 23.2324 89.1793 23.8124 89.446 24.3057C89.726 24.799 90.086 25.179 90.526 25.4457C90.9793 25.699 91.4593 25.8257 91.966 25.8257C92.486 25.8257 92.966 25.6924 93.406 25.4257C93.8593 25.159 94.2193 24.779 94.486 24.2857C94.766 23.7924 94.906 23.2057 94.906 22.5257ZM116.506 28.1057H113.706L107.366 18.5257V28.1057H104.566V14.1257H107.366L113.706 23.7257V14.1257H116.506V28.1057ZM124.193 28.2857C123.127 28.2857 122.167 28.0524 121.313 27.5857C120.46 27.1057 119.787 26.4324 119.293 25.5657C118.813 24.699 118.573 23.699 118.573 22.5657C118.573 21.4324 118.82 20.4324 119.313 19.5657C119.82 18.699 120.507 18.0324 121.373 17.5657C122.24 17.0857 123.207 16.8457 124.273 16.8457C125.34 16.8457 126.307 17.0857 127.173 17.5657C128.04 18.0324 128.72 18.699 129.213 19.5657C129.72 20.4324 129.973 21.4324 129.973 22.5657C129.973 23.699 129.713 24.699 129.193 25.5657C128.687 26.4324 127.993 27.1057 127.113 27.5857C126.247 28.0524 125.273 28.2857 124.193 28.2857ZM124.193 25.8457C124.7 25.8457 125.173 25.7257 125.613 25.4857C126.067 25.2324 126.427 24.859 126.693 24.3657C126.96 23.8724 127.093 23.2724 127.093 22.5657C127.093 21.5124 126.813 20.7057 126.253 20.1457C125.707 19.5724 125.033 19.2857 124.233 19.2857C123.433 19.2857 122.76 19.5724 122.213 20.1457C121.68 20.7057 121.413 21.5124 121.413 22.5657C121.413 23.619 121.673 24.4324 122.193 25.0057C122.727 25.5657 123.393 25.8457 124.193 25.8457ZM147.387 17.0257L144.147 28.1057H141.127L139.107 20.3657L137.087 28.1057H134.047L130.787 17.0257H133.627L135.587 25.4657L137.707 17.0257H140.667L142.747 25.4457L144.707 17.0257H147.387Z" fill="white"/>
<defs>
<filter id="filter0_d_10_113" x="0" y="0" width="199.803" height="47.4241" filterUnits="userSpaceOnUse" color-interpolation-filters="sRGB">
<feFlood flood-opacity="0" result="BackgroundImageFix"/>
<feColorMatrix in="SourceAlpha" type="matrix" values="0 0 0 0 0 0 0 0 0 0 0 0 0 0 0 0 0 0 127 0" result="hardAlpha"/>
<feOffset dx="4" dy="4"/>
<feComposite in2="hardAlpha" operator="out"/>
<feColorMatrix type="matrix" values="0 0 0 0 1 0 0 0 0 1 0 0 0 0 1 0 0 0 1 0"/>
<feBlend mode="normal" in2="BackgroundImageFix" result="effect1_dropShadow_10_113"/>
<feBlend mode="normal" in="SourceGraphic" in2="effect1_dropShadow_10_113" result="shape"/>
</filter>
</defs>
</svg>
