<svg width="200" height="48" viewBox="0 0 200 48" fill="none" xmlns="http://www.w3.org/2000/svg">
<g filter="url(#filter0_d_153_559)">
<rect width="195.803" height="43.4241" fill="#243C55"/>
</g>
<path d="M27.8858 17.7458V20.5458H31.6458V22.3218H27.8858V25.2818H32.1258V27.1058H25.6458V15.9218H32.1258V17.7458H27.8858ZM39.0574 27.1058L37.2334 24.3538L35.6174 27.1058H33.2174L36.1134 22.6578L33.1854 18.2418H35.7134L37.5214 20.9778L39.1534 18.2418H41.5534L38.6414 22.6578L41.5854 27.1058H39.0574ZM45.042 19.5218C45.33 19.1164 45.7247 18.7804 46.226 18.5138C46.738 18.2364 47.3194 18.0978 47.97 18.0978C48.7274 18.0978 49.41 18.2844 50.018 18.6578C50.6367 19.0311 51.122 19.5644 51.474 20.2578C51.8367 20.9404 52.018 21.7351 52.018 22.6418C52.018 23.5484 51.8367 24.3538 51.474 25.0578C51.122 25.7511 50.6367 26.2898 50.018 26.6738C49.41 27.0578 48.7274 27.2498 47.97 27.2498C47.3194 27.2498 46.7434 27.1164 46.242 26.8498C45.7514 26.5831 45.3514 26.2471 45.042 25.8418V31.3298H42.802V18.2418H45.042V19.5218ZM49.73 22.6418C49.73 22.1084 49.618 21.6498 49.394 21.2658C49.1807 20.8711 48.8927 20.5724 48.53 20.3698C48.178 20.1671 47.794 20.0658 47.378 20.0658C46.9727 20.0658 46.5887 20.1724 46.226 20.3858C45.874 20.5884 45.586 20.8871 45.362 21.2818C45.1487 21.6764 45.042 22.1404 45.042 22.6738C45.042 23.2071 45.1487 23.6711 45.362 24.0658C45.586 24.4604 45.874 24.7644 46.226 24.9778C46.5887 25.1804 46.9727 25.2818 47.378 25.2818C47.794 25.2818 48.178 25.1751 48.53 24.9618C48.8927 24.7484 49.1807 24.4444 49.394 24.0498C49.618 23.6551 49.73 23.1858 49.73 22.6418ZM55.8858 15.2658V27.1058H53.6458V15.2658H55.8858ZM62.0349 27.2498C61.1816 27.2498 60.4136 27.0631 59.7309 26.6898C59.0482 26.3058 58.5096 25.7671 58.1149 25.0738C57.7309 24.3804 57.5389 23.5804 57.5389 22.6738C57.5389 21.7671 57.7362 20.9671 58.1309 20.2738C58.5362 19.5804 59.0856 19.0471 59.7789 18.6738C60.4722 18.2898 61.2456 18.0978 62.0989 18.0978C62.9522 18.0978 63.7256 18.2898 64.4189 18.6738C65.1122 19.0471 65.6562 19.5804 66.0509 20.2738C66.4562 20.9671 66.6589 21.7671 66.6589 22.6738C66.6589 23.5804 66.4509 24.3804 66.0349 25.0738C65.6296 25.7671 65.0749 26.3058 64.3709 26.6898C63.6776 27.0631 62.8989 27.2498 62.0349 27.2498ZM62.0349 25.2978C62.4402 25.2978 62.8189 25.2018 63.1709 25.0098C63.5336 24.8071 63.8216 24.5084 64.0349 24.1138C64.2482 23.7191 64.3549 23.2391 64.3549 22.6738C64.3549 21.8311 64.1309 21.1858 63.6829 20.7378C63.2456 20.2791 62.7069 20.0498 62.0669 20.0498C61.4269 20.0498 60.8882 20.2791 60.4509 20.7378C60.0242 21.1858 59.8109 21.8311 59.8109 22.6738C59.8109 23.5164 60.0189 24.1671 60.4349 24.6258C60.8616 25.0738 61.3949 25.2978 62.0349 25.2978ZM70.542 19.6178C70.83 19.1484 71.2034 18.7804 71.662 18.5138C72.1314 18.2471 72.6647 18.1138 73.262 18.1138V20.4658H72.67C71.966 20.4658 71.4327 20.6311 71.07 20.9618C70.718 21.2924 70.542 21.8684 70.542 22.6898V27.1058H68.302V18.2418H70.542V19.6178ZM83.0108 22.4818C83.0108 22.8018 82.9895 23.0898 82.9468 23.3458H76.4668C76.5201 23.9858 76.7441 24.4871 77.1388 24.8498C77.5335 25.2124 78.0188 25.3938 78.5948 25.3938C79.4268 25.3938 80.0188 25.0364 80.3708 24.3218H82.7868C82.5308 25.1751 82.0401 25.8791 81.3148 26.4338C80.5895 26.9778 79.6988 27.2498 78.6428 27.2498C77.7895 27.2498 77.0215 27.0631 76.3388 26.6898C75.6668 26.3058 75.1388 25.7671 74.7548 25.0738C74.3815 24.3804 74.1948 23.5804 74.1948 22.6738C74.1948 21.7564 74.3815 20.9511 74.7548 20.2578C75.1281 19.5644 75.6508 19.0311 76.3228 18.6578C76.9948 18.2844 77.7681 18.0978 78.6428 18.0978C79.4855 18.0978 80.2375 18.2791 80.8988 18.6418C81.5708 19.0044 82.0881 19.5218 82.4508 20.1938C82.8241 20.8551 83.0108 21.6178 83.0108 22.4818ZM80.6908 21.8418C80.6801 21.2658 80.4721 20.8071 80.0668 20.4658C79.6615 20.1138 79.1655 19.9378 78.5788 19.9378C78.0241 19.9378 77.5548 20.1084 77.1708 20.4498C76.7975 20.7804 76.5681 21.2444 76.4828 21.8418H80.6908ZM87.9143 21.5058C87.9143 20.4071 88.1596 19.4258 88.6503 18.5618C89.1516 17.6871 89.829 17.0098 90.6823 16.5298C91.5463 16.0391 92.5116 15.7938 93.5783 15.7938C94.8263 15.7938 95.9196 16.1138 96.8583 16.7538C97.797 17.3938 98.453 18.2791 98.8263 19.4098H96.2503C95.9943 18.8764 95.6316 18.4764 95.1623 18.2098C94.7036 17.9431 94.1703 17.8098 93.5623 17.8098C92.9116 17.8098 92.3303 17.9644 91.8183 18.2738C91.317 18.5724 90.9223 18.9991 90.6343 19.5538C90.357 20.1084 90.2183 20.7591 90.2183 21.5058C90.2183 22.2418 90.357 22.8924 90.6343 23.4578C90.9223 24.0124 91.317 24.4444 91.8183 24.7538C92.3303 25.0524 92.9116 25.2018 93.5623 25.2018C94.1703 25.2018 94.7036 25.0684 95.1623 24.8018C95.6316 24.5244 95.9943 24.1191 96.2503 23.5858H98.8263C98.453 24.7271 97.797 25.6178 96.8583 26.2578C95.9303 26.8871 94.837 27.2018 93.5783 27.2018C92.5116 27.2018 91.5463 26.9618 90.6823 26.4818C89.829 25.9911 89.1516 25.3138 88.6503 24.4498C88.1596 23.5858 87.9143 22.6044 87.9143 21.5058ZM104.676 27.2498C103.822 27.2498 103.054 27.0631 102.372 26.6898C101.689 26.3058 101.15 25.7671 100.756 25.0738C100.372 24.3804 100.18 23.5804 100.18 22.6738C100.18 21.7671 100.377 20.9671 100.772 20.2738C101.177 19.5804 101.726 19.0471 102.42 18.6738C103.113 18.2898 103.886 18.0978 104.74 18.0978C105.593 18.0978 106.366 18.2898 107.06 18.6738C107.753 19.0471 108.297 19.5804 108.692 20.2738C109.097 20.9671 109.3 21.7671 109.3 22.6738C109.3 23.5804 109.092 24.3804 108.676 25.0738C108.27 25.7671 107.716 26.3058 107.012 26.6898C106.318 27.0631 105.54 27.2498 104.676 27.2498ZM104.676 25.2978C105.081 25.2978 105.46 25.2018 105.812 25.0098C106.174 24.8071 106.462 24.5084 106.676 24.1138C106.889 23.7191 106.996 23.2391 106.996 22.6738C106.996 21.8311 106.772 21.1858 106.324 20.7378C105.886 20.2791 105.348 20.0498 104.708 20.0498C104.068 20.0498 103.529 20.2791 103.092 20.7378C102.665 21.1858 102.452 21.8311 102.452 22.6738C102.452 23.5164 102.66 24.1671 103.076 24.6258C103.502 25.0738 104.036 25.2978 104.676 25.2978ZM113.183 15.2658V27.1058H110.943V15.2658H113.183ZM117.636 15.2658V27.1058H115.396V15.2658H117.636ZM128.089 22.4818C128.089 22.8018 128.068 23.0898 128.025 23.3458H121.545C121.598 23.9858 121.822 24.4871 122.217 24.8498C122.612 25.2124 123.097 25.3938 123.673 25.3938C124.505 25.3938 125.097 25.0364 125.449 24.3218H127.865C127.609 25.1751 127.118 25.8791 126.393 26.4338C125.668 26.9778 124.777 27.2498 123.721 27.2498C122.868 27.2498 122.1 27.0631 121.417 26.6898C120.745 26.3058 120.217 25.7671 119.833 25.0738C119.46 24.3804 119.273 23.5804 119.273 22.6738C119.273 21.7564 119.46 20.9511 119.833 20.2578C120.206 19.5644 120.729 19.0311 121.401 18.6578C122.073 18.2844 122.846 18.0978 123.721 18.0978C124.564 18.0978 125.316 18.2791 125.977 18.6418C126.649 19.0044 127.166 19.5218 127.529 20.1938C127.902 20.8551 128.089 21.6178 128.089 22.4818ZM125.769 21.8418C125.758 21.2658 125.55 20.8071 125.145 20.4658C124.74 20.1138 124.244 19.9378 123.657 19.9378C123.102 19.9378 122.633 20.1084 122.249 20.4498C121.876 20.7804 121.646 21.2444 121.561 21.8418H125.769ZM129.148 22.6738C129.148 21.7564 129.335 20.9564 129.708 20.2738C130.081 19.5804 130.599 19.0471 131.26 18.6738C131.921 18.2898 132.679 18.0978 133.532 18.0978C134.631 18.0978 135.537 18.3751 136.252 18.9298C136.977 19.4738 137.463 20.2418 137.708 21.2338H135.292C135.164 20.8498 134.945 20.5511 134.636 20.3378C134.337 20.1138 133.964 20.0018 133.516 20.0018C132.876 20.0018 132.369 20.2364 131.996 20.7058C131.623 21.1644 131.436 21.8204 131.436 22.6738C131.436 23.5164 131.623 24.1724 131.996 24.6418C132.369 25.1004 132.876 25.3298 133.516 25.3298C134.423 25.3298 135.015 24.9244 135.292 24.1138H137.708C137.463 25.0738 136.977 25.8364 136.252 26.4018C135.527 26.9671 134.62 27.2498 133.532 27.2498C132.679 27.2498 131.921 27.0631 131.26 26.6898C130.599 26.3058 130.081 25.7724 129.708 25.0898C129.335 24.3964 129.148 23.5911 129.148 22.6738ZM141.957 20.0818V24.3698C141.957 24.6684 142.026 24.8871 142.165 25.0258C142.314 25.1538 142.56 25.2178 142.901 25.2178H143.941V27.1058H142.533C140.645 27.1058 139.701 26.1884 139.701 24.3538V20.0818H138.645V18.2418H139.701V16.0498H141.957V18.2418H143.941V20.0818H141.957ZM146.688 17.1858C146.293 17.1858 145.963 17.0631 145.696 16.8178C145.44 16.5618 145.312 16.2471 145.312 15.8738C145.312 15.5004 145.44 15.1911 145.696 14.9458C145.963 14.6898 146.293 14.5618 146.688 14.5618C147.083 14.5618 147.408 14.6898 147.664 14.9458C147.931 15.1911 148.064 15.5004 148.064 15.8738C148.064 16.2471 147.931 16.5618 147.664 16.8178C147.408 17.0631 147.083 17.1858 146.688 17.1858ZM147.792 18.2418V27.1058H145.552V18.2418H147.792ZM153.941 27.2498C153.088 27.2498 152.32 27.0631 151.637 26.6898C150.954 26.3058 150.416 25.7671 150.021 25.0738C149.637 24.3804 149.445 23.5804 149.445 22.6738C149.445 21.7671 149.642 20.9671 150.037 20.2738C150.442 19.5804 150.992 19.0471 151.685 18.6738C152.378 18.2898 153.152 18.0978 154.005 18.0978C154.858 18.0978 155.632 18.2898 156.325 18.6738C157.018 19.0471 157.562 19.5804 157.957 20.2738C158.362 20.9671 158.565 21.7671 158.565 22.6738C158.565 23.5804 158.357 24.3804 157.941 25.0738C157.536 25.7671 156.981 26.3058 156.277 26.6898C155.584 27.0631 154.805 27.2498 153.941 27.2498ZM153.941 25.2978C154.346 25.2978 154.725 25.2018 155.077 25.0098C155.44 24.8071 155.728 24.5084 155.941 24.1138C156.154 23.7191 156.261 23.2391 156.261 22.6738C156.261 21.8311 156.037 21.1858 155.589 20.7378C155.152 20.2791 154.613 20.0498 153.973 20.0498C153.333 20.0498 152.794 20.2791 152.357 20.7378C151.93 21.1858 151.717 21.8311 151.717 22.6738C151.717 23.5164 151.925 24.1671 152.341 24.6258C152.768 25.0738 153.301 25.2978 153.941 25.2978ZM165.12 18.1138C166.176 18.1138 167.03 18.4498 167.68 19.1218C168.331 19.7831 168.656 20.7111 168.656 21.9058V27.1058H166.416V22.2098C166.416 21.5058 166.24 20.9671 165.888 20.5938C165.536 20.2098 165.056 20.0178 164.448 20.0178C163.83 20.0178 163.339 20.2098 162.976 20.5938C162.624 20.9671 162.448 21.5058 162.448 22.2098V27.1058H160.208V18.2418H162.448V19.3458C162.747 18.9618 163.126 18.6631 163.584 18.4498C164.054 18.2258 164.566 18.1138 165.12 18.1138Z" fill="white"/>
<defs>
<filter id="filter0_d_153_559" x="0" y="0" width="199.803" height="47.4241" filterUnits="userSpaceOnUse" color-interpolation-filters="sRGB">
<feFlood flood-opacity="0" result="BackgroundImageFix"/>
<feColorMatrix in="SourceAlpha" type="matrix" values="0 0 0 0 0 0 0 0 0 0 0 0 0 0 0 0 0 0 127 0" result="hardAlpha"/>
<feOffset dx="4" dy="4"/>
<feComposite in2="hardAlpha" operator="out"/>
<feColorMatrix type="matrix" values="0 0 0 0 1 0 0 0 0 1 0 0 0 0 1 0 0 0 1 0"/>
<feBlend mode="normal" in2="BackgroundImageFix" result="effect1_dropShadow_153_559"/>
<feBlend mode="normal" in="SourceGraphic" in2="effect1_dropShadow_153_559" result="shape"/>
</filter>
</defs>
</svg>
