<svg width="117" height="35" viewBox="0 0 117 35" fill="none" xmlns="http://www.w3.org/2000/svg">
<g filter="url(#filter0_d_10_342)">
<rect x="0.660896" width="111.783" height="30.358" fill="#243C55"/>
</g>
<path d="M47.605 9.79965L43.509 20.9677H40.789L36.693 9.79965H39.093L42.165 18.6797L45.221 9.79965H47.605ZM51.188 9.79965V20.9677H48.948V9.79965H51.188ZM57.2571 21.0797C56.4784 21.0797 55.7744 20.9463 55.1451 20.6797C54.5264 20.413 54.0358 20.029 53.6731 19.5277C53.3104 19.0263 53.1238 18.4343 53.1131 17.7517H55.5131C55.5451 18.2103 55.7051 18.573 55.9931 18.8397C56.2918 19.1063 56.6971 19.2397 57.2091 19.2397C57.7318 19.2397 58.1424 19.117 58.4411 18.8717C58.7398 18.6157 58.8891 18.285 58.8891 17.8797C58.8891 17.549 58.7878 17.277 58.5851 17.0637C58.3824 16.8503 58.1264 16.685 57.8171 16.5677C57.5184 16.4397 57.1024 16.301 56.5691 16.1517C55.8438 15.9383 55.2518 15.7303 54.7931 15.5277C54.3451 15.3143 53.9558 14.9997 53.6251 14.5837C53.3051 14.157 53.1451 13.5917 53.1451 12.8877C53.1451 12.2263 53.3104 11.6503 53.6411 11.1597C53.9718 10.669 54.4358 10.2957 55.0331 10.0397C55.6304 9.77298 56.3131 9.63965 57.0811 9.63965C58.2331 9.63965 59.1664 9.92232 59.8811 10.4877C60.6064 11.0423 61.0064 11.821 61.0811 12.8237H58.6171C58.5958 12.4397 58.4304 12.125 58.1211 11.8797C57.8224 11.6237 57.4224 11.4957 56.9211 11.4957C56.4838 11.4957 56.1318 11.6077 55.8651 11.8317C55.6091 12.0557 55.4811 12.381 55.4811 12.8077C55.4811 13.1063 55.5771 13.357 55.7691 13.5597C55.9718 13.7517 56.2171 13.9117 56.5051 14.0397C56.8038 14.157 57.2198 14.2957 57.7531 14.4557C58.4784 14.669 59.0704 14.8823 59.5291 15.0957C59.9878 15.309 60.3824 15.629 60.7131 16.0557C61.0438 16.4823 61.2091 17.0423 61.2091 17.7357C61.2091 18.333 61.0544 18.8877 60.7451 19.3997C60.4358 19.9117 59.9824 20.3223 59.3851 20.6317C58.7878 20.9303 58.0784 21.0797 57.2571 21.0797ZM65.3911 9.79965V20.9677H63.1511V9.79965H65.3911ZM75.2042 9.79965V11.6077H72.2282V20.9677H69.9882V11.6077H67.0122V9.79965H75.2042Z" fill="white"/>
<defs>
<filter id="filter0_d_10_342" x="0.660896" y="0" width="115.783" height="34.358" filterUnits="userSpaceOnUse" color-interpolation-filters="sRGB">
<feFlood flood-opacity="0" result="BackgroundImageFix"/>
<feColorMatrix in="SourceAlpha" type="matrix" values="0 0 0 0 0 0 0 0 0 0 0 0 0 0 0 0 0 0 127 0" result="hardAlpha"/>
<feOffset dx="4" dy="4"/>
<feComposite in2="hardAlpha" operator="out"/>
<feColorMatrix type="matrix" values="0 0 0 0 1 0 0 0 0 1 0 0 0 0 1 0 0 0 1 0"/>
<feBlend mode="normal" in2="BackgroundImageFix" result="effect1_dropShadow_10_342"/>
<feBlend mode="normal" in="SourceGraphic" in2="effect1_dropShadow_10_342" result="shape"/>
</filter>
</defs>
</svg>
